<svg xmlns="http://www.w3.org/2000/svg" viewBox="494 768 1062 483">
  <defs>
    <style>
      .st0 {
        fill: #FF2D6F;
      }
    </style>
  </defs>
  <g id="Layer_1">
    <g>
      <polygon points="569.36 1227.7 552.05 1172.31 546.47 1172.31 529.21 1227.84 511.67 1172.31 504.29 1172.31 526.53 1240.91 531.91 1240.91 549.26 1185.47 566.71 1240.91 572.09 1240.91 594.33 1172.31 586.95 1172.31 569.36 1227.7"/>
      <polygon points="630.64 1209 665.34 1209 665.34 1202.52 630.64 1202.52 630.64 1178.99 667.94 1178.99 667.94 1172.31 630.64 1172.31 628.15 1172.31 623.27 1172.31 623.27 1240.91 628.15 1240.91 630.64 1240.91 668.53 1240.91 668.53 1234.23 630.64 1234.23 630.64 1209"/>
      <path d="M723.65,1172.31l-28.02,68.6h7.78l7.2-17.85h31.35l7.12,17.85h7.98l-27.82-68.6h-5.58ZM713.18,1216.68l13.19-32.69,13.03,32.69h-26.23Z"/>
      <path d="M822.14,1207.9c3.19-1.6,5.63-3.81,7.33-6.63,1.7-2.82,2.54-6.16,2.54-10.02,0-3.66-.85-6.91-2.54-9.77-1.69-2.86-4.14-5.1-7.33-6.73-3.19-1.63-7.01-2.44-11.47-2.44h-24.73v68.6h7.38v-30.61h9.27l24.84,30.61h9.47l-25.24-30.63c4.03-.11,7.53-.89,10.49-2.37ZM793.32,1178.79h17.35c4.52,0,7.98,1.18,10.37,3.54,2.39,2.36,3.59,5.4,3.59,9.12s-1.21,6.83-3.64,9.12c-2.43,2.29-5.9,3.44-10.42,3.44h-17.25v-25.23Z"/>
      <path d="M899.16,1208.3c-2.03-1.53-4.27-2.79-6.73-3.79-2.46-1-4.9-1.91-7.33-2.74-2.43-.83-4.67-1.78-6.73-2.84-2.06-1.06-3.71-2.39-4.93-3.99-1.23-1.6-1.85-3.66-1.85-6.18,0-3.32,1.2-5.92,3.59-7.78,2.39-1.86,5.58-2.79,9.57-2.79,3.32,0,6.25.65,8.77,1.94,2.53,1.3,4.85,3.24,6.98,5.83l5.09-5.09c-2.33-2.92-5.23-5.25-8.72-6.98-3.49-1.73-7.46-2.59-11.92-2.59-3.99,0-7.56.71-10.72,2.14-3.16,1.43-5.63,3.47-7.43,6.13-1.79,2.66-2.69,5.85-2.69,9.57,0,3.52.63,6.43,1.9,8.72,1.26,2.29,2.91,4.16,4.94,5.58,2.03,1.43,4.27,2.63,6.73,3.59,2.46.96,4.9,1.88,7.33,2.74,2.43.86,4.67,1.85,6.73,2.94,2.06,1.1,3.71,2.53,4.94,4.29,1.23,1.76,1.84,4.01,1.84,6.73,0,3.52-1.35,6.28-4.04,8.28-2.69,1.99-6.23,2.99-10.62,2.99s-7.93-.8-11.02-2.39c-3.09-1.6-5.8-4.02-8.13-7.28l-5.09,4.99c2.86,3.72,6.22,6.58,10.07,8.57,3.85,1.99,8.48,2.99,13.86,2.99,6.91,0,12.38-1.65,16.4-4.94,4.02-3.29,6.03-7.89,6.03-13.81,0-3.66-.63-6.66-1.89-9.02-1.26-2.36-2.91-4.3-4.94-5.83Z"/>
      <path d="M1016.66,1174.85c-3.26-1.7-6.95-2.54-11.07-2.54h-25.53v68.6h7.38v-27.52h18.15c4.12,0,7.81-.85,11.07-2.54,3.26-1.69,5.83-4.07,7.73-7.13,1.89-3.06,2.84-6.68,2.84-10.87s-.95-7.73-2.84-10.82c-1.9-3.09-4.47-5.48-7.73-7.18ZM1017.86,1200.38c-1.26,2.09-3.01,3.71-5.23,4.84-2.23,1.13-4.77,1.7-7.63,1.7h-17.55v-28.12h17.55c2.86,0,5.4.57,7.63,1.7,2.23,1.13,3.97,2.74,5.23,4.84,1.26,2.09,1.9,4.6,1.9,7.53s-.63,5.43-1.9,7.53Z"/>
      <path d="M1092.71,1207.9c3.19-1.6,5.63-3.81,7.33-6.63,1.7-2.82,2.54-6.16,2.54-10.02,0-3.66-.85-6.91-2.54-9.77-1.69-2.86-4.14-5.1-7.33-6.73-3.19-1.63-7.01-2.44-11.47-2.44h-24.73v68.6h7.38v-30.61h9.27l24.84,30.61h9.47l-25.24-30.63c4.03-.11,7.53-.89,10.49-2.37ZM1063.9,1178.79h17.35c4.52,0,7.98,1.18,10.37,3.54,2.39,2.36,3.59,5.4,3.59,9.12s-1.21,6.83-3.64,9.12c-2.43,2.29-5.9,3.44-10.42,3.44h-17.25v-25.23Z"/>
      <path d="M1189.88,1181.48c-3.12-3.19-6.76-5.68-10.92-7.48-4.16-1.8-8.66-2.69-13.51-2.69s-9.36.9-13.51,2.69c-4.15,1.79-7.78,4.29-10.87,7.48-3.09,3.19-5.5,6.91-7.23,11.17-1.73,4.26-2.59,8.87-2.59,13.86s.86,9.52,2.59,13.81c1.73,4.29,4.15,8.04,7.28,11.27,3.12,3.23,6.78,5.75,10.97,7.58,4.19,1.83,8.71,2.74,13.56,2.74s9.34-.91,13.46-2.74c4.12-1.83,7.73-4.34,10.82-7.53,3.09-3.19,5.5-6.93,7.23-11.22,1.73-4.29,2.59-8.89,2.59-13.81s-.86-9.62-2.59-13.91c-1.73-4.29-4.16-8.03-7.28-11.22ZM1188.68,1221.07c-2.33,4.26-5.48,7.61-9.47,10.07-3.99,2.46-8.58,3.69-13.76,3.69-3.79,0-7.31-.7-10.57-2.09-3.26-1.4-6.08-3.37-8.48-5.93-2.39-2.56-4.26-5.57-5.58-9.02-1.33-3.46-1.99-7.21-1.99-11.27,0-5.45,1.15-10.29,3.44-14.51,2.29-4.22,5.45-7.54,9.47-9.97,4.02-2.43,8.59-3.64,13.71-3.64,3.86,0,7.41.7,10.67,2.09,3.26,1.4,6.08,3.36,8.48,5.88,2.39,2.53,4.25,5.5,5.58,8.92,1.33,3.42,1.99,7.16,1.99,11.22,0,5.45-1.16,10.3-3.49,14.56Z"/>
      <path d="M1281.27,1182.03c-3.16-3.09-6.85-5.48-11.07-7.18-4.22-1.7-8.82-2.54-13.81-2.54h-24.93v68.6h25.13c4.92,0,9.49-.86,13.71-2.59,4.22-1.73,7.89-4.14,11.02-7.23,3.12-3.09,5.55-6.73,7.28-10.92,1.73-4.19,2.59-8.71,2.59-13.56s-.86-9.55-2.59-13.71c-1.73-4.15-4.17-7.78-7.33-10.87ZM1280.07,1220.82c-2.29,4.16-5.5,7.41-9.62,9.77-4.12,2.36-8.87,3.54-14.26,3.54h-17.35v-55.04h17.35c5.32,0,10.04,1.16,14.16,3.49,4.12,2.33,7.34,5.57,9.67,9.72,2.33,4.16,3.49,8.89,3.49,14.21s-1.15,10.16-3.44,14.31Z"/>
      <path d="M1366.11,1215.98c0,3.79-.8,7.11-2.39,9.97-1.6,2.86-3.77,5.05-6.53,6.58-2.76,1.53-5.9,2.29-9.42,2.29s-6.68-.76-9.47-2.29c-2.79-1.53-5-3.72-6.63-6.58-1.63-2.86-2.44-6.21-2.44-10.07v-43.57h-7.38v43.97c0,4.85,1.13,9.22,3.39,13.11,2.26,3.89,5.34,6.95,9.22,9.17,3.89,2.23,8.33,3.34,13.31,3.34s9.32-1.11,13.21-3.34c3.89-2.23,6.94-5.27,9.17-9.12,2.23-3.85,3.34-8.21,3.34-13.06v-44.07h-7.38v43.67Z"/>
      <path d="M1450.45,1232.53c-3.42,1.53-7.33,2.29-11.72,2.29-3.86,0-7.41-.7-10.67-2.09-3.26-1.4-6.08-3.37-8.48-5.93-2.39-2.56-4.25-5.57-5.58-9.02-1.33-3.46-1.99-7.21-1.99-11.27s.65-7.71,1.94-11.17c1.3-3.46,3.16-6.45,5.58-8.97,2.43-2.52,5.25-4.49,8.48-5.88,3.22-1.4,6.76-2.09,10.62-2.09,4.19,0,7.98.75,11.37,2.24,3.39,1.5,6.25,3.57,8.58,6.23l5.08-5.08c-3.12-3.26-6.76-5.82-10.92-7.68-4.16-1.86-8.86-2.79-14.11-2.79-4.92,0-9.46.9-13.61,2.69-4.16,1.79-7.79,4.29-10.92,7.48-3.12,3.19-5.53,6.93-7.23,11.22-1.69,4.29-2.54,8.89-2.54,13.81s.86,9.52,2.59,13.81c1.73,4.29,4.15,8.06,7.28,11.32,3.12,3.26,6.78,5.78,10.97,7.58s8.74,2.69,13.66,2.69c5.25,0,10.02-.93,14.31-2.79,4.29-1.86,7.96-4.45,11.02-7.78l-5.08-5.09c-2.33,2.66-5.2,4.75-8.63,6.28Z"/>
      <polygon points="1545.49 1172.31 1489.75 1172.31 1489.75 1178.99 1513.98 1178.99 1513.98 1240.91 1521.36 1240.91 1521.36 1178.99 1545.49 1178.99 1545.49 1172.31"/>
    </g>
    <path d="M693.34,941.37c-5.7-14.37-13.75-26.91-24.15-37.61-10.41-10.7-22.57-18.97-36.48-24.84-13.92-5.87-29.08-8.8-45.51-8.8h-82.91v237.36h83.57c16.21,0,31.27-2.99,45.18-8.97,13.91-5.98,26.01-14.32,36.31-25.01,10.3-10.7,18.29-23.29,23.99-37.78,5.69-14.49,8.54-30.13,8.54-46.92s-2.85-33.06-8.54-47.44ZM665.24,1037.97c-7.56,14.38-18.13,25.65-31.71,33.81-13.59,8.17-29.25,12.25-46.99,12.25h-56.72v-190.44h56.72c17.52,0,33.08,4.03,46.66,12.08,13.58,8.05,24.2,19.27,31.88,33.64,7.67,14.38,11.5,30.76,11.5,49.16s-3.78,35.14-11.34,49.51Z"/>
    <path d="M779.24,896.79v-26.66h162.21v26.66h-162.21ZM779.24,1001.32v-26.66h146.8v26.66h-146.8ZM779.24,1107.49v-26.66h164.65v26.66h-164.65Z"/>
    <polygon points="1180.19 850.13 1099.09 1066.19 1018.32 850.13 988.72 850.13 1084.25 1107.49 1113.22 1107.49 1209.44 850.13 1180.19 850.13"/>
    <path d="M1277.91,1107.49v-237.36h25.53v237.36h-25.53Z"/>
    <polygon points="1423.36 1084.37 1423.36 870.13 1397.83 870.13 1397.83 1107.49 1414.74 1107.49 1423.36 1107.49 1545.49 1107.49 1545.49 1084.37 1423.36 1084.37"/>
  </g>
  <g id="Layer_2">
    <path class="st0" d="M992.77,876.52c-25.91-30.12-21.03-74.2-4.21-97.58-2.02,49.46,18.65,60.07,35.43,72.34-12.05,18.17-31.23,25.24-31.23,25.24Z"/>
    <path class="st0" d="M1205.39,876.52c25.91-30.12,21.03-74.2,4.21-97.58,2.02,49.46-18.65,60.07-35.43,72.34,12.05,18.17,31.23,25.24,31.23,25.24Z"/>
  </g>
</svg>
